<?xml version="1.0" encoding="UTF-8" standalone="no"?>
<!-- Created with Inkscape (http://www.inkscape.org/) -->

<svg
        width="80mm"
        height="80mm"
        viewBox="0 0 80 80"
        version="1.1"
        id="svg1"
        inkscape:version="1.3.2 (091e20e, 2023-11-25)"
        sodipodi:docname="drawing.svg"
        xmlns:inkscape="http://www.inkscape.org/namespaces/inkscape"
        xmlns:sodipodi="http://sodipodi.sourceforge.net/DTD/sodipodi-0.dtd"
        xmlns:xlink="http://www.w3.org/1999/xlink"
        xmlns="http://www.w3.org/2000/svg"
        xmlns:svg="http://www.w3.org/2000/svg">
  <sodipodi:namedview
          id="namedview1"
          pagecolor="#ffffff"
          bordercolor="#000000"
          borderopacity="0.25"
          inkscape:showpageshadow="2"
          inkscape:pageopacity="0.0"
          inkscape:pagecheckerboard="0"
          inkscape:deskcolor="#d1d1d1"
          inkscape:document-units="mm"
          showgrid="true"
          inkscape:zoom="0.51402217"
          inkscape:cx="395.89732"
          inkscape:cy="561.25984"
          inkscape:window-width="1224"
          inkscape:window-height="790"
          inkscape:window-x="217"
          inkscape:window-y="25"
          inkscape:window-maximized="0"
          inkscape:current-layer="layer1"
          showguides="true">
    <inkscape:grid
            id="grid2"
            units="mm"
            originx="0"
            originy="0"
            spacingx="0.99999998"
            spacingy="1"
            empcolor="#0099e5"
            empopacity="0.30196078"
            color="#0099e5"
            opacity="0.14901961"
            empspacing="5"
            dotted="false"
            gridanglex="30"
            gridanglez="30"
            visible="true" />
    <sodipodi:guide
            position="8.6191227,1.7117587"
            orientation="0,-1"
            id="guide2"
            inkscape:locked="false" />
    <sodipodi:guide
            position="10.887313,-7.209791"
            orientation="1,0"
            id="guide3"
            inkscape:locked="false" />
  </sodipodi:namedview>
  <defs
          id="defs1">
    <marker
            markerWidth="282.09406"
            markerHeight="284.61322"
            refX="141.04704"
            refY="142.30663"
            orient="auto"
            id="marker3">
      <g
              id="g2"
              clip-path="none"
              transform="matrix(3.1911908,0,0,3.2620532,-19.419723,-305.53206)">
        <g
                inkscape:label="Clip"
                id="g1">
          <path
                  d="m 6.0854159,93.6625 c 29.1712541,0 58.3425111,0 88.3977451,0 0,28.79241 0,57.58481 0,87.24972 -29.171259,0 -58.342513,0 -88.3977451,0 0,-28.79241 0,-57.58482 0,-87.24972 z"
                  fill="#fdfdfd"
                  id="path1"
                  style="stroke-width:0.0857636" />
        </g>
      </g>
      <use
              x="0"
              y="0"
              xlink:href="#g1"
              id="use2"
              transform="matrix(3.1911908,0,0,3.2620532,-19.419723,-305.53206)" />
    </marker>
  </defs>
  <g
          inkscape:label="Layer 1"
          inkscape:groupmode="layer"
          id="layer1">
    <path
            d="m 41.741396,4.6392142 c 0.235292,0.001 0.470584,0.003 0.713006,0.004 1.659122,0.0297 3.101573,0.18382 4.62827,0.87249 0.22101,0.0931 0.44202,0.18622 0.669727,0.28216 3.284254,1.49868 5.457946,4.08094 6.815087,7.4041898 0.512566,1.40533 0.481684,2.74098 0.452686,4.2199 0.28854,-0.0138 0.28854,-0.0138 0.58291,-0.0279 3.476348,-0.0936 6.693446,0.69586 9.3462,3.05304 1.500841,1.59639 2.499638,3.32292 3.035473,5.44153 0.04877,0.17428 0.09754,0.34857 0.147795,0.52813 0.713651,3.23985 -0.64884,6.26804 -2.264462,8.99687 -0.55263,0.72564 -1.131034,1.29598 -1.852083,1.85208 -0.23073,0.18111 -0.23073,0.18111 -0.466121,0.36587 -2.570887,1.80016 -5.587657,2.17335 -8.644628,2.14813 -0.505343,0.002 -0.505343,0.002 -1.020896,0.004 -0.912914,0.004 -1.825693,7.9e-4 -2.7386,-0.004 -0.961349,-0.004 -1.922692,-0.002 -2.884046,-0.001 -1.612578,8e-4 -3.225103,-0.003 -4.837669,-0.009 -1.85812,-0.007 -3.716152,-0.007 -5.574281,-0.004 -1.796829,0.003 -3.593628,10e-4 -5.390455,-0.003 -0.760665,-0.002 -1.521308,-0.002 -2.281974,-2.4e-4 -1.063643,0.002 -2.127158,-0.004 -3.190787,-0.009 -0.467488,0.002 -0.467488,0.002 -0.94442,0.004 -3.456828,-0.031 -6.152268,-1.01687 -8.730248,-3.36303 -2.698409,-2.81462 -3.403793,-5.69109 -3.377573,-9.50833 0.232953,-3.07943 2.05651,-5.22473 4.259173,-7.2316 1.651174,-1.35251 3.387237,-2.00497 5.510774,-1.99367 0.283084,8.4e-4 0.566167,0.002 0.857829,0.003 0.293998,0.002 0.587995,0.004 0.890902,0.007 0.447135,0.002 0.447135,0.002 0.903304,0.004 0.735197,0.003 1.470366,0.007 2.20555,0.0129 0.0066,-0.21105 0.01322,-0.42211 0.02002,-0.63956 0.140953,-3.57091 1.668976,-6.69662 4.256716,-9.1675898 2.647736,-2.16591 5.489721,-3.26229 8.902817,-3.24012 z"
            fill='black'
            id="path8"
            style="stroke-width:0.264583" />
    <path
            d="m 47.347255,9.7489742 c 1.99011,1.2766698 3.355541,3.5587098 3.96875,5.8208298 0.07958,0.75655 0.07958,0.75655 0.08268,1.52136 0.0044,0.24966 0.0089,0.49932 0.01344,0.75654 -0.132243,1.23427 -0.504151,2.36667 -0.889868,3.54294 0.235995,-0.006 0.47199,-0.0111 0.715137,-0.0168 0.88615,-0.0182 1.772099,-0.0314 2.658365,-0.0413 0.381576,-0.005 0.763132,-0.0125 1.144633,-0.0217 3.114095,-0.0734 5.384856,0.27486 7.724012,2.48796 1.443719,1.58385 1.691193,3.07547 1.617472,5.19865 -0.24756,2.10173 -1.128123,3.96799 -2.747119,5.35781 -1.59725,1.01139 -2.988782,1.35661 -4.873863,1.35295 -0.344235,-2e-5 -0.68847,-4e-5 -1.043137,-6e-5 -0.374466,-10e-4 -0.748932,-0.003 -1.123397,-0.004 -0.384069,-5e-4 -0.768138,-8.7e-4 -1.152207,-0.001 -1.009127,-10e-4 -2.018244,-0.004 -3.027367,-0.007 -1.030432,-0.003 -2.060866,-0.004 -3.0913,-0.005 -2.020553,-0.003 -4.041098,-0.007 -6.061646,-0.0129 -0.03302,-0.21577 -0.06604,-0.43154 -0.100058,-0.65384 -0.04509,-0.28423 -0.09017,-0.56847 -0.13662,-0.86132 -0.04393,-0.28125 -0.08787,-0.5625 -0.133131,-0.85227 -0.354806,-1.79805 -1.122089,-3.04773 -2.560244,-4.18101 -1.316296,-0.85439 -2.678453,-1.1517 -4.213696,-1.38906 -0.08134,-0.33919 -0.08134,-0.33919 -0.164332,-0.68523 -0.07128,-0.2923 -0.142565,-0.58459 -0.216007,-0.88574 -0.0706,-0.29161 -0.141201,-0.58322 -0.213941,-0.88366 -0.128022,-0.69238 -0.128022,-0.69238 -0.464054,-0.98496 -0.0558,-0.55567 -0.09757,-1.11279 -0.132291,-1.67018 -0.05881,-1.15303 -0.05881,-1.15303 -0.267684,-2.28306 -0.49882,-2.10303 -0.40488,-4.83863 0.525032,-6.79442 3.216205,-5.0093798 8.870194,-6.7964198 14.162443,-3.8044198 z"
            fill="#7ecc75"
            id="path14"
            style="stroke-width:0.264583" />
    <path
            d="m 73.14413,44.855874 c 0.218281,0.0273 0.436562,0.0546 0.661458,0.0827 0.651242,0.97686 0.763535,1.90782 0.942578,3.04271 0.240482,1.53992 0.240482,1.53992 0.644922,3.04271 0.289061,3.44901 0.03971,7.02462 -1.058333,10.31875 -0.615444,0.10071 -1.233105,0.18857 -1.852083,0.26458 -0.264584,-0.26458 -0.264584,-0.26458 -0.28112,-0.94258 0.0055,-0.21282 0.01091,-0.42564 0.01654,-0.64492 -0.162687,0.0924 -0.325375,0.18486 -0.492993,0.28009 -0.320771,0.18059 -0.320771,0.18059 -0.648022,0.36483 -0.317702,0.17957 -0.317702,0.17957 -0.641821,0.36277 -1.53772,0.81003 -3.27645,0.83758 -4.948536,0.41755 -2.008393,-0.79288 -3.861162,-2.44808 -4.743896,-4.44314 -0.490442,-2.0227 -0.60808,-4.62164 0.346232,-6.52363 1.274353,-1.85394 3.054659,-3.50412 5.308203,-3.95222 2.075262,-0.29808 3.724174,0.40688 5.55625,1.32292 -0.0061,-0.16576 -0.01228,-0.33152 -0.0186,-0.5023 -0.0048,-0.21623 -0.0096,-0.43247 -0.01447,-0.65525 -0.0061,-0.21487 -0.01228,-0.42974 -0.0186,-0.65113 0.07937,-0.87946 0.388779,-1.07773 1.242301,-1.18442 z"
            fill='black'
            id="path22"
            style="stroke-width:0.264583" />
    <path
            d="m 40.01127,48.001934 c 1.175801,0.97036 1.913798,1.9165 2.573486,3.28662 0.109141,0.20191 0.218281,0.40382 0.33073,0.61185 0.545189,1.9536 0.272288,3.92437 -0.595313,5.73815 -1.097489,1.89411 -2.491255,2.86069 -4.431771,3.78685 -2.202145,0.46584 -4.109036,0.39917 -6.084383,-0.73277 -1.721615,-1.17858 -3.010542,-2.57544 -3.506762,-4.64158 -0.275507,-2.31905 -0.294722,-4.35981 1.117244,-6.33656 2.867449,-3.3086 6.861505,-4.30542 10.596769,-1.71256 z"
            fill='black'
            id="path25"
            style="stroke-width:0.264583" />
    <path
            d="m 28.297255,22.448974 c 1.074788,0.95512 1.977404,2.09627 2.224154,3.5388 0.05524,1.54672 -0.183024,2.59226 -0.909506,3.96875 -0.146146,0.28036 -0.292292,0.56071 -0.442867,0.84956 -0.169594,0.31617 -0.169594,0.31617 -0.342614,0.63872 0.209477,10e-4 0.418955,0.002 0.63478,0.003 0.95167,0.009 1.902893,0.0274 2.854412,0.0463 0.329639,0.002 0.659278,0.003 0.998906,0.005 2.726079,0.0658 2.726079,0.0658 3.528983,0.86868 0.148363,0.21931 0.296726,0.43861 0.449585,0.66456 0.08731,0.0873 0.174625,0.17463 0.264584,0.26459 0.03514,0.47955 0.03514,0.47955 0.03307,1.05833 0.001,0.28649 0.001,0.28649 0.0021,0.57878 -0.03514,0.47955 -0.03514,0.47955 -0.29972,0.74414 -0.427117,0.0302 -0.855545,0.0422 -1.283707,0.0468 -0.273897,0.003 -0.547795,0.007 -0.829992,0.0103 -0.298728,0.002 -0.597457,0.004 -0.905238,0.006 -0.305859,0.002 -0.611718,0.004 -0.926845,0.006 -0.64971,0.004 -1.299425,0.006 -1.949142,0.009 -0.990156,0.005 -1.980074,0.0161 -2.970168,0.0278 -0.630967,0.003 -1.261937,0.005 -1.892907,0.007 -0.29498,0.005 -0.589959,0.009 -0.893877,0.014 -2.330446,-0.006 -4.115418,-0.54815 -5.810624,-2.24336 -1.637353,-2.46002 -2.071187,-4.19802 -1.852083,-7.14375 0.405722,-1.46413 1.246338,-2.44308 2.38125,-3.43958 0.319237,-0.2865 0.319237,-0.2865 0.644922,-0.57878 2.270608,-1.60604 4.97183,-1.30186 7.292578,0.0496 z"
            fill="#7ecc75"
            id="path26"
            style="stroke-width:0.264583" />
    <path
            d="m 47.611838,46.526054 c 0.771028,0.77103 0.6079,1.57571 0.610815,2.60863 0.0067,0.42512 0.01338,0.85025 0.02015,1.27537 0.0076,0.66998 0.01394,1.33995 0.01893,2.00996 0.0058,0.64681 0.01619,1.29344 0.02707,1.94019 3.1e-5,0.19849 6.2e-5,0.39699 9.3e-5,0.60149 0.02357,1.26114 0.233565,2.1387 0.910446,3.20603 1.149174,0.78352 2.064339,0.94109 3.439583,0.79375 1.38245,-0.48793 1.951455,-1.1041 2.645834,-2.38125 0.150373,-0.76685 0.159999,-1.51661 0.16123,-2.2965 0.0044,-0.21505 0.0088,-0.43009 0.01326,-0.65165 0.01278,-0.68198 0.01847,-1.3638 0.02395,-2.04586 0.0075,-0.46441 0.01537,-0.92881 0.02377,-1.3932 0.0195,-1.13411 0.03265,-2.26814 0.04238,-3.40238 1.681688,-0.34903 1.681688,-0.34903 2.357543,-0.0141 0.447125,0.84256 0.406688,1.68938 0.403012,2.62064 0.0014,0.20465 0.0028,0.4093 0.0042,0.62014 0.0017,0.43369 0.0013,0.86738 -9e-4,1.30106 -0.0022,0.65691 0.0053,1.31319 0.01376,1.97004 0.02083,4.59641 0.02083,4.59641 -1.625417,6.41976 -1.524811,1.47539 -3.15175,1.93871 -5.236703,2.04794 -2.116529,-0.0491 -3.308605,-0.90607 -4.745964,-2.38125 -1.022863,-1.61298 -1.344494,-2.88801 -1.329118,-4.76664 -7.59e-4,-0.20691 -0.0015,-0.41382 -0.0023,-0.62701 -5.38e-4,-0.43402 9.04e-4,-0.86805 0.0042,-1.30207 0.0043,-0.66487 1.8e-5,-1.32933 -0.005,-1.99419 5.24e-4,-0.42306 0.0015,-0.84612 0.0031,-1.26917 -0.0016,-0.19844 -0.0032,-0.39689 -0.0049,-0.60134 0.01845,-1.36172 0.01845,-1.36172 0.471378,-2.01737 0.614399,-0.38489 1.045929,-0.36202 1.755578,-0.27104 z"
            fill='black'
            id="path55"
            style="stroke-width:0.264583" />
    <path
            d="m 17.151683,47.104834 c 1.120451,0.56752 2.03274,1.20554 2.94349,2.06706 -0.198438,1.25677 -0.198438,1.25677 -0.79375,1.85208 -1.079487,-0.0257 -1.713127,-0.32819 -2.563151,-0.94258 -1.303891,-0.86342 -2.533065,-0.85451 -4.051433,-0.64492 -1.576832,0.52561 -2.448196,1.56686 -3.2576819,2.9931 -0.339369,1.32662 -0.464978,2.47345 0.117822,3.74757 0.7640909,1.22815 1.4390309,2.12079 2.8752769,2.51975 1.983805,0.21581 3.405549,0.14019 5.027083,-1.05834 0.174625,-0.17462 0.34925,-0.34925 0.529167,-0.52916 0.79375,0.0496 0.79375,0.0496 1.5875,0.26458 0.529167,0.79375 0.529167,0.79375 0.488859,1.32188 -0.536531,1.26839 -2.087258,2.0611 -3.300057,2.6138 -2.006585,0.65569 -4.351966,0.64662 -6.283854,-0.21498 -1.6916889,-0.9838 -2.8409649,-2.39561 -3.8695309,-4.03489 -0.538865,-2.05442 -0.625677,-4.19432 0.28112,-6.15156 2.141031,-3.66261 6.1969709,-5.58287 10.2691399,-3.80339 z"
            fill='black'
            id="path57"
            style="stroke-width:0.264583" />
    <path
            d="m 24.857672,45.203144 c 0.41767,0.41767 0.299656,0.83979 0.302113,1.41936 0.0019,0.24553 0.0037,0.49106 0.0056,0.74403 0.0011,0.26732 0.0022,0.53465 0.0033,0.81007 0.0061,0.56104 0.01252,1.12207 0.01912,1.6831 0.0093,0.8884 0.01706,1.77671 0.02061,2.66515 0.0041,0.85478 0.01472,1.70928 0.02642,2.56399 -5.05e-4,0.26572 -0.001,0.53144 -0.0015,0.8052 0.0025,1.44052 0.0025,1.44052 0.646646,2.68522 0.617371,0.41753 1.236403,0.81393 1.888062,1.17596 -0.06615,0.62839 -0.06615,0.62839 -0.264584,1.32292 -0.599078,0.46595 -1.068729,0.53075 -1.81901,0.64492 -1.073672,-0.15031 -1.756248,-0.59995 -2.414323,-1.43867 -0.847583,-1.59092 -0.910194,-2.94162 -0.89917,-4.72529 -7.59e-4,-0.27152 -0.0015,-0.54303 -0.0023,-0.82277 -5.37e-4,-0.57104 9.13e-4,-1.14209 0.0042,-1.71312 0.0043,-0.87564 2.5e-5,-1.75096 -0.005,-2.62659 5.24e-4,-0.55569 0.0015,-1.11139 0.0031,-1.66708 -0.0016,-0.2621 -0.0032,-0.52421 -0.0049,-0.79425 0.0025,-0.24293 0.005,-0.48586 0.0076,-0.73615 6.32e-4,-0.21356 0.0013,-0.42713 0.0019,-0.64716 0.257219,-1.41655 1.21496,-1.45902 2.482044,-1.34884 z"
            fill='black'
            id="path80"
            style="stroke-width:0.264583" />
    <path
            d="m 38.880589,66.105224 c 2.9845,0 2.9845,0 3.96875,0.79375 0.264583,0.26458 0.264583,0.26458 0.363802,1.14102 -0.09922,0.97565 -0.09922,0.97565 -0.677995,1.62057 -0.784241,0.43569 -1.187711,0.51391 -2.067057,0.41341 0,0.52387 0,1.04775 0,1.5875 -0.523875,0 -1.04775,0 -1.5875,0 0,-1.83356 0,-3.66713 0,-5.55625 z"
            fill='black'
            id="path104"
            style="stroke-width:0.264583" />
    <path
            d="m 34.468455,66.073184 c 0.84817,0.35536 0.890855,0.52717 1.242301,1.34565 0.163578,0.43656 0.321509,0.87527 0.47439,1.31569 0.08237,0.22152 0.164734,0.44304 0.249597,0.67127 0.593762,1.62208 0.593762,1.62208 0.593762,2.25568 -0.523875,0 -1.04775,0 -1.5875,0 -0.08731,-0.26194 -0.174625,-0.52388 -0.264583,-0.79375 -0.785986,0.0906 -0.785986,0.0906 -1.5875,0.26458 -0.08731,0.17463 -0.174625,0.34925 -0.264583,0.52917 -0.523875,0 -1.04775,0 -1.5875,0 0.156302,-1.27191 0.540164,-2.36005 1.058333,-3.52227 0.07231,-0.16729 0.144611,-0.33458 0.219108,-0.50694 0.663775,-1.5179 0.663775,-1.5179 1.454175,-1.55908 z"
            fill='black'
            id="path106"
            style="stroke-width:0.264583" />
    <path
            d="m 45.230589,66.105224 c 2.649897,-0.12771 2.649897,-0.12771 3.753776,0.41341 0.479557,0.64492 0.479557,0.64492 0.628385,1.5875 -0.148828,0.90951 -0.148828,0.90951 -0.562239,1.42214 -0.856807,0.37348 -1.573117,0.33442 -2.497005,0.28112 0,0.61118 0,1.22237 0,1.85208 -0.436563,0 -0.873125,0 -1.322917,0 0,-1.83356 0,-3.66713 0,-5.55625 z"
            fill='black'
            id="path109"
            style="stroke-width:0.264583" />
    <path
            d="m 52.795566,68.191854 c 0.297898,10e-4 0.595797,0.003 0.902723,0.004 0.321453,8.5e-4 0.642906,0.002 0.9741,0.003 0.338507,0.002 0.677013,0.004 1.025778,0.007 0.339529,0.001 0.679059,0.002 1.028877,0.004 0.842166,0.003 1.684308,0.007 2.526461,0.0129 0.28112,0.49609 0.28112,0.49609 0.529167,1.05833 -0.08731,0.17463 -0.174625,0.34925 -0.264584,0.52917 -2.44475,0 -4.8895,0 -7.408333,0 -0.08731,-0.43657 -0.174625,-0.87313 -0.264583,-1.32292 0.264583,-0.26458 0.264583,-0.26458 0.950394,-0.29462 z"
            fill='black'
            id="path121"
            style="stroke-width:0.264583" />
    <path
            d="m 21.947255,68.221894 c 2.44475,0 4.8895,0 7.408333,0 0.08731,0.34925 0.174625,0.6985 0.264584,1.05833 -0.264584,0.26459 -0.264584,0.26459 -0.998971,0.29462 -0.320067,-0.001 -0.640135,-0.003 -0.969901,-0.004 -0.345328,-8.5e-4 -0.690656,-0.002 -1.046448,-0.003 -0.36742,-0.002 -0.734839,-0.004 -1.102259,-0.007 -0.368452,-0.001 -0.736905,-0.003 -1.105358,-0.004 -0.904866,-0.003 -1.809709,-0.007 -2.714563,-0.0129 0.08731,-0.43657 0.174625,-0.87313 0.264583,-1.32292 z"
            fill='black'
            id="path125"
            style="stroke-width:0.264583" />
    <path
            d="m 38.880589,66.105224 c 2.802322,-0.14692 2.802322,-0.14692 3.96875,0.79375 0.264583,0.26458 0.264583,0.26458 0.347266,1.15755 -0.08268,0.95912 -0.08268,0.95912 -0.529167,1.47175 -0.697196,0.32033 -1.175982,0.34435 -1.934766,0.28112 0.14479,-0.89287 0.279109,-1.34471 0.79375,-2.11667 -0.436562,0 -0.873125,0 -1.322916,0 -0.08731,-0.26194 -0.174625,-0.52388 -0.264584,-0.79375 -0.261937,-0.0873 -0.523875,-0.17463 -0.79375,-0.26458 0,0.52387 0,1.04775 0,1.5875 -0.08731,0 -0.174625,0 -0.264583,0 0,-0.6985 0,-1.397 0,-2.11667 z"
            fill='black'
            id="path130"
            style="stroke-width:0.264583" />
    <path
            d="m 48.405588,66.369804 c 0.529167,0.28112 0.529167,0.28112 1.058333,0.79375 0.06615,0.97565 0.06615,0.97565 0,1.85208 -0.261937,0 -0.523875,0 -0.79375,0 -0.174625,-0.26193 -0.34925,-0.52387 -0.529166,-0.79375 -0.08731,0.0873 -0.174625,0.17463 -0.264584,0.26459 -0.440841,0.0108 -0.882089,0.0113 -1.322916,0 0,-0.34925 0,-0.6985 0,-1.05834 0.25648,-0.0764 0.512961,-0.15279 0.777213,-0.23151 0.838502,-0.20297 0.838502,-0.20297 1.07487,-0.82682 z"
            fill='black'
            id="path149"
            style="stroke-width:0.264583" />
    <path
            d="m 33.588922,69.015644 c 0.261937,0.39291 0.261937,0.39291 0.529167,0.79375 0.261937,0.0873 0.523875,0.17462 0.79375,0.26458 0.08731,-0.17462 0.174625,-0.34925 0.264583,-0.52916 0.261937,0.0873 0.523875,0.17462 0.79375,0.26458 0,0.17462 0,0.34925 0,0.52917 0.261937,0.0873 0.523875,0.17462 0.79375,0.26458 0.181901,0.5457 0.181901,0.5457 0.264583,1.05833 -0.523875,0 -1.04775,0 -1.5875,0 -0.08731,-0.34925 -0.174625,-0.6985 -0.264583,-1.05833 -0.523875,0 -1.04775,0 -1.5875,0 0,-0.52388 0,-1.04775 0,-1.5875 z"
            fill='black'
            id="path157"
            style="stroke-width:0.264583" />
    <path
            d="m 27.768089,22.184394 c -0.79375,0.26458 -0.79375,0.26458 -1.5875,0 -0.633653,-0.0184 -1.267798,-0.0224 -1.901693,-0.0165 -0.33663,0.002 -0.673261,0.005 -1.020092,0.007 -0.258186,0.003 -0.516372,0.006 -0.782382,0.009 0,-0.17462 0,-0.34925 0,-0.52917 1.894374,-0.63145 3.507608,-0.24933 5.291667,0.52917 z"
            fill="#7ecc75"
            id="path169"
            style="stroke-width:0.264583" />
    <path
            d="m 34.118089,68.751054 c 0.152797,0.0437 0.305594,0.0873 0.463021,0.13229 0.665862,0.17056 0.665862,0.17056 1.653646,0.13229 0.08731,0.43657 0.174625,0.87313 0.264583,1.32292 -0.196453,-0.0928 -0.392906,-0.18554 -0.595313,-0.28112 -0.762601,-0.25998 -1.048216,-0.25669 -1.785937,0.0165 0,-0.43657 0,-0.87313 0,-1.32292 z"
            fill='black'
            id="path184"
            style="stroke-width:0.264583" />
    <path
            d="m 14.274339,26.153144 c 0.625936,0.9389 0.557914,1.21085 0.429948,2.29857 -0.02933,0.26296 -0.05866,0.52592 -0.08888,0.79685 -0.02524,0.20089 -0.05048,0.40177 -0.07648,0.60875 -0.174625,0 -0.34925,0 -0.529166,0 -0.0072,-0.46851 -0.01228,-0.93706 -0.01654,-1.4056 -0.0031,-0.26092 -0.0061,-0.52183 -0.0093,-0.79065 0.02584,-0.71417 0.02584,-0.71417 0.290422,-1.50792 z"
            fill='black'
            id="path189"
            style="stroke-width:0.264583" />
    <path
            d="m 42.584755,52.611474 c 0.174625,0 0.34925,0 0.529167,0 0.01433,0.42434 0.02457,0.84881 0.03307,1.27331 0.0061,0.23635 0.01228,0.47271 0.0186,0.71623 -0.05168,0.65629 -0.05168,0.65629 -0.580843,1.45004 -0.25575,-0.82597 -0.261908,-1.46072 -0.148828,-2.3151 0.02694,-0.21146 0.05389,-0.42292 0.08165,-0.64079 0.02217,-0.15962 0.04434,-0.31923 0.06718,-0.48369 z"
            fill='black'
            id="path203"
            style="stroke-width:0.264583" />
    <path
            d="m 20.624339,22.713564 c 0.08731,0.26194 0.174625,0.52387 0.264583,0.79375 -0.31105,0.24557 -0.31105,0.24557 -0.628385,0.49609 -0.686164,0.53541 -0.686164,0.53541 -1.223698,1.09141 0.12489,-1.12401 0.784901,-1.64039 1.5875,-2.38125 z"
            fill="#7ecc75"
            id="path214"
            style="stroke-width:0.264583" />
    <path
            d="m 62.957672,32.767724 c 0.08731,0.17462 0.174625,0.34925 0.264583,0.52917 -0.427553,0.54006 -0.869325,1.06911 -1.322916,1.5875 -0.174625,0 -0.34925,0 -0.529167,0 0.381671,-0.89057 0.881763,-1.45798 1.5875,-2.11667 z"
            fill='black'
            id="path225"
            style="stroke-width:0.264583" />
    <path
            d="m 61.105588,22.713564 c 0.890566,0.38167 1.457979,0.88176 2.116667,1.5875 -0.08731,0.17462 -0.174625,0.34925 -0.264584,0.52917 -0.310227,-0.25167 -0.618561,-0.50567 -0.926041,-0.76068 -0.171897,-0.1412 -0.343793,-0.2824 -0.520899,-0.42788 -0.133697,-0.13165 -0.267394,-0.2633 -0.405143,-0.39894 0,-0.17463 0,-0.34925 0,-0.52917 z"
            fill="#7ecc75"
            id="path234"
            style="stroke-width:0.264583" />
  </g>
</svg>
